[img]http://i.imgur.com/Amz8O.jpg[/img]

[code]
Seven.Psychopaths.2012.480p.BDRip.XViD.AC3-26k
 
http://www.imdb.com/title/tt1931533/

Plot:

A struggling screenwriter inadvertently becomes entangled in the Los Angeles criminal underworld after 
his oddball friends kidnap a gangster's beloved Shih Tzu.

Sources - VIDEO: Seven.Psychopaths.2012.1080p.BluRay.AVC.DTS-HD.MA.5.1 ..... thanks .... :P
          AUDIO: Seven.Psychopaths.2012.1080p.BluRay.AVC.DTS-HD.MA.5.1 ..... thanks .... :P
          SUBS : ENG.SRT IN TORRENT FILE

Format                                   : AVI
Format/Info                              : Audio Video Interleave
File size                                : 1.94 GiB
Duration                                 : 1h 50mn
Overall bit rate                         : 2 519 Kbps

Video
ID                                       : 0
Format                                   : MPEG-4 Visual
Format profile                           : Advanced Simple@L5
Format settings, BVOP                    : 2
Format settings, QPel                    : No
Format settings, GMC                     : No warppoints
Format settings, Matrix                  : Default (H.263)
Codec ID                                 : XVID
Codec ID/Hint                            : XviD
Duration                                 : 1h 50mn
Bit rate                                 : 1 999 Kbps
Width                                    : 720 pixels
Height                                   : 304 pixels
Display aspect ratio                     : 2.35:1
Frame rate                               : 23.976 fps
Color space                              : YUV
Chroma subsampling                       : 4:2:0
Bit depth                                : 8 bits
Scan type                                : Progressive
Compression mode                         : Lossy
Bits/(Pixel*Frame)                       : 0.381
Stream size                              : 1.54 GiB (79%)
Writing library                          : XviD 1.2.1 (UTC 2008-12-04)

Audio
ID                                       : 1
Format                                   : AC-3
Format/Info                              : Audio Coding 3
Mode extension                           : CM (complete main)
Format settings, Endianness              : Big
Codec ID                                 : 2000
Duration                                 : 1h 50mn
Bit rate mode                            : Constant
Bit rate                                 : 512 Kbps
Channel(s)                               : 6 channels
Channel positions                        : Front: L C R, Side: L R, LFE
Sampling rate                            : 48.0 KHz
Bit depth                                : 16 bits
Compression mode                         : Lossy
Stream size                              : 404 MiB (20%)
Alignment                                : Aligned on interleaves
Interleave, duration                     : 64 ms (1.53 video frames)
Interleave, preload duration             : 192 ms
Title                                    : 512

Notes -
Took the BD and made a script to make magic happen.. this is the outcome.. enjoy :P
[/code]

Screens:

[img]http://i.imgur.com/4O1SP.png[/img]
[img]http://i.imgur.com/yWlBB.png[/img]
[img]http://i.imgur.com/COy7v.png[/img]
[img]http://i.imgur.com/aLKSY.png[/img]
[img]http://i.imgur.com/GuxUK.jpg[/img]
[img]http://imageshack.us/a/img844/4133/59896567.png[/img]
[img]http://imageshack.us/a/img26/1617/82214245.png[/img]
[img]http://imageshack.us/a/img197/7542/77813970.png[/img]
[img]http://imageshack.us/a/img268/4480/73253755.png[/img]
[img]http://imageshack.us/a/img59/3517/35312828.png[/img]

Greetz:
XtremeEncode|CM8|RX|VISION|HDSCENE|xTriLL|ADTRG|CRYS|REMIXHD|HS|Tommiecook
BIDA|RX|REFILL|INSPiRAL|AXED|HOPE|Anonymous|GooN|NOIR|Blackjesus|Gabroo Punjab Deh
|UNiQUE|RESiSTANCE|TRiNiTY|LEGION

To all the people who have helped me, you know who you are

Anything to offer email us @: 26k@hushmail.me 